<svg viewBox="0 0 388.5 388.87" xmlns="http://www.w3.org/2000/svg"><rect fill="#ebf0f9" height="376.87" rx="69.74" width="376.5" x="7" y="6"/><path d="m379.06 67.91c-8.35-8.94-18.74-14.26-30-14.26h-322.79a37.94 37.94 0 0 0 -21.62 7 70 70 0 0 1 68.1-54.65h237a70 70 0 0 1 69.31 61.91z" fill="#bbd2e5" opacity=".5"/><rect fill="#32caf8" height="266.68" rx="51.33" width="317.79" x="32.79" y="30.73"/><path d="m350.57 75.61v30.6c0-24.68-16.88-44.88-37.5-44.88h-242.78c-20.62 0-37.5 20.2-37.5 44.88v-30.6c0-24.68 16.88-44.88 37.5-44.88h242.79c20.62 0 37.49 20.19 37.49 44.88z" fill="#00a3eb"/><ellipse cx="332.83" cy="203.16" fill="#fff" rx="3.83" ry="21.98" transform="matrix(.99988735 -.01500927 .01500927 .99988735 -3.02 5.03)"/><ellipse cx="333.36" cy="246.19" fill="#fff" rx="3.83" ry="10.99" transform="matrix(.99988735 -.01500927 .01500927 .99988735 -3.66 5.03)"/><path d="m299.24 302.54h-215.12a57.4 57.4 0 0 1 -57.33-57.34v-164a57.4 57.4 0 0 1 57.33-57.35h215.12a57.4 57.4 0 0 1 57.33 57.33v164a57.4 57.4 0 0 1 -57.33 57.36zm-215.12-266.69a45.39 45.39 0 0 0 -45.33 45.34v164a45.39 45.39 0 0 0 45.33 45.33h215.12a45.39 45.39 0 0 0 45.33-45.33v-164a45.39 45.39 0 0 0 -45.33-45.33z" fill="#426572"/><path d="m111.26 205 31.29-60.59c4-7.74 13.36-7.89 17.53-.27l33.13 60.59c4.52 8.27-.43 19.24-8.69 19.24h-64.43c-8.09.03-13.09-10.7-8.83-18.97z" fill="#6ae184"/><path d="m184.52 220.47h-64.43c-8.14 0-13.11-10.68-8.84-19 1.77 3.44 4.94 5.88 8.82 5.88h64.43c3.89 0 7-2.43 8.82-5.88 4.31 8.24-.62 19-8.8 19z" fill="#a8ff8c"/><path d="m312.76 388.87h-237a75.83 75.83 0 0 1 -75.76-75.74v-237.39a75.83 75.83 0 0 1 75.74-75.74h237a75.83 75.83 0 0 1 75.76 75.74v237.39a75.83 75.83 0 0 1 -75.74 75.74zm-237.02-376.87a63.81 63.81 0 0 0 -63.74 63.74v237.39a63.81 63.81 0 0 0 63.74 63.74h237a63.81 63.81 0 0 0 63.74-63.74v-237.39a63.81 63.81 0 0 0 -63.72-63.74z" fill="#426572"/><path d="m184.52 229.09h-64.43a15.71 15.71 0 0 1 -13.51-8 20.31 20.31 0 0 1 -.66-19.76l31.29-60.58c2.92-5.66 8.15-9.07 14-9.14s11.1 3.2 14.13 8.74l33.14 60.65a20.27 20.27 0 0 1 -.34 20 15.91 15.91 0 0 1 -13.62 8.09zm-67.93-22.22a8.36 8.36 0 0 0 .25 8 4.08 4.08 0 0 0 3.26 2.2h64.42a4.11 4.11 0 0 0 3.3-2.27 8.45 8.45 0 0 0 .13-8.1l-33.13-60.58a4.14 4.14 0 0 0 -3.42-2.5c-1.35 0-2.61 1-3.47 2.65z" fill="#426572"/><path d="m154.29 196.14 44.45-86.06c5.68-11 19-11.2 24.9-.39l47.06 86.06c6.42 11.75-.62 27.34-12.35 27.34h-91.51c-11.56 0-18.63-15.18-12.55-26.95z" fill="#6ae184"/><path d="m258.36 219.59h-91.52c-11.38 0-18.41-14.72-12.82-26.41 2.47 5.19 7.09 8.92 12.82 8.92h91.52c5.73 0 10.35-3.73 12.81-8.92 5.58 11.63-1.39 26.41-12.81 26.41z" fill="#a8ff8c"/><path d="m258.36 229.09h-91.52c-6.91 0-13.12-3.68-17-10.1a26.3 26.3 0 0 1 -.85-25.6l44.45-86.06c3.71-7.19 10.32-11.53 17.67-11.62h.22c7.22 0 13.79 4.14 17.6 11.11l47.07 86.05a26.25 26.25 0 0 1 -.44 25.87c-3.93 6.58-10.19 10.35-17.2 10.35zm-98.74-30.2a14.43 14.43 0 0 0 .44 13.86c1 1.62 3.18 4.34 6.78 4.34h91.51c3.66 0 5.87-2.79 6.85-4.46a14.39 14.39 0 0 0 .23-14l-47.07-86.06c-1.71-3.13-4.31-4.92-7.16-4.87s-5.48 1.9-7.15 5.13l-44.45 86.06z" fill="#426572"/></svg>