<svg height="700" viewBox="0 0 185.20832 185.20832" width="700" xmlns="http://www.w3.org/2000/svg"><g transform="translate(244.17261 202.68451)"><g transform="translate(708.39452 -1395.2419)"><path d="m-172.90538-1050.9226c3.39877-2.5377 2.99925-7.8285 0-10.8277l-36.20385-36.2043c-2.99924-2.9992-7.82831-2.9992-10.82755 0l-58.71681 58.6149-58.63793 58.53587c-3.02589 18.77157-6.1309 37.62221-9.15691 56.3938l56.18187-9.36844c30.37245-30.37282 44.72497-44.67089 59.21122-59.10268 14.48613-14.43185 28.73348-28.62465 58.14996-58.04145z" style="fill:none;stroke:#000;stroke-width:9.260416;stroke-linecap:round;stroke-linejoin:round;stroke-miterlimit:6.2"/><rect height="67.306938" ry="5.0819" transform="matrix(-.70710294 .70711062 -.70710294 -.70711062 0 0)" width="11.06725" x="-601.16461" y="865.35944"/><path d="m-312.8744-925.23385-32.29813-32.29847-1.2759 33.12229z"/><rect height="67.306938" ry="5.0819" transform="matrix(-.70710294 .70711062 -.70710294 -.70711062 0 0)" width="11.06725" x="-467.45428" y="865.7829"/></g><g transform="translate(-22.7253 -737.9912)"><ellipse cx="-352.55511" cy="-1716.3115" rx="5.334151" ry="5.341983"/><g fill="none" stroke="#000" stroke-linecap="round" stroke-linejoin="round" stroke-width="9.260416"><path d="m-352.55512-1698.4895v37.8585"/><path d="m-436.72159-1743.2881c-2.10926 0-3.80747 1.7045-3.80747 3.8223v103.5679c0 2.1178 1.69821 3.8231 3.80747 3.8231h23.24053v36.2859l71.37453-36.2859h31.63448 42.08329c2.10914 0 3.80758-1.7053 3.80758-3.8231v-103.5679c0-2.1178-1.69844-3.8223-3.80758-3.8223z" stroke-miterlimit="6.2"/></g></g><g fill="none" stroke="#000" stroke-linecap="round" stroke-linejoin="round" stroke-width="9.260416" transform="translate(1610.5255 248.63091)"><path d="m-1849.9638-304.30968h41.1225l69.633-108.80316h23.9087 41.1225"/><path d="m-1674.1771-413.11286-39.6587-19.99314"/><path d="m-1674.1771-413.11286-39.6587 19.99316"/><path d="m-1674.1771-304.30968-39.6587-19.99316"/><path d="m-1674.1771-304.30968-39.6587 19.99316"/><path d="m-1850.0108-413.10521h41.1225l69.6331 108.80316h23.9086 41.1226"/></g><g fill="none" stroke="#000" stroke-linecap="round" stroke-linejoin="round" stroke-width="9.260416" transform="translate(-396.85889 -1264.9155)"><path d="m-867.12106-414.18708h104.67358c3.37276 0 6.08811 2.70492 6.08811 6.06485v144.09387c0 3.35992-2.71535 6.06484-6.08811 6.06484h-104.67358c-3.37287 0-6.08822-2.70492-6.08822-6.06484v-144.09387c0-3.35993 2.71535-6.06485 6.08822-6.06485z" stroke-miterlimit="6.2"/><path d="m-872.7638-428.6037h116.31654"/><path d="m-847.83449-394.01058v115.87056"/><path d="m-814.78433-394.01058v115.87056"/><path d="m-781.73416-394.01058v115.87056"/><path d="m-831.68517-433.91096h34.15927"/></g><g fill="none" stroke="#000" stroke-linecap="round" stroke-linejoin="round" transform="translate(-1842.2183 -908.82736)"><path d="m-508.09411-666.26096-.00027 50.63486c0 1.26357-.84285 2.2808-1.89013 2.2808h-172.17305c-1.04714 0-1.89013-1.01723-1.89013-2.2808v-50.63486" stroke-miterlimit="6.2" stroke-width="9.260415"/><g stroke-width="9.260416" transform="matrix(1 0 0 -1 -440.26952 -837.77833)"><path d="m-155.80138-47.138367v-150.834973"/><path d="m-155.80138-197.97325-43.48169 44.42384"/><path d="m-155.80138-197.97325 43.4817 44.42384"/></g></g><g fill="none" stroke="#000" stroke-linecap="round" stroke-linejoin="round" stroke-width="9.260416" transform="translate(-1852.3955 -902.05838)"><path d="m-190.13824-620.9037-.00016-175.78177"/><path d="m-154.99508-620.80411-70.28647-.00015"/><path d="m-154.99492-796.78492-70.28647-.00015"/></g><g fill="none" stroke="#000" stroke-linecap="round" stroke-linejoin="round" stroke-width="9.260416" transform="translate(150.40038 -731.4105)"><path d="m-1004.9363-1676.1193h175.8228"/><path d="m-1004.9363-1735.3048h175.8228"/><path d="m-1004.9363-1616.9339h175.8228"/></g><g fill="none" stroke="#000" stroke-linecap="round" stroke-linejoin="round" stroke-width="6.481928" transform="matrix(1.4022306 0 0 1.4555701 666.00715 -1856.0442)"><path d="m-127.05-111.18531v84.939867h-97.20364v-120.685337h59.76009" stroke-miterlimit="6.2"/><path d="m-128.34411-109.94993h-36.14952c-.71698 0-1.2941-.55098-1.2941-1.23539v-34.51006c0-.6844.57712-1.23539 1.2941-1.23539l37.44363 35.74545c0 .68441-.57721 1.23539-1.29411 1.23539z"/></g><g fill="none" stroke="#000" stroke-linecap="round" stroke-linejoin="round" stroke-width=".714622" transform="matrix(1.4033843 0 0 1.3953112 -518.94303 -1492.0296)"><g stroke-width="8.07283" transform="matrix(.82034858 0 0 .81914972 -1000.8153 8.590866)"><path d="m1064.0341-145.82398v108.350009h-118.37027v-153.947239h72.77317" stroke-miterlimit="6.2"/><path d="m1062.4582-144.24812h-44.0213c-.8731 0-1.5759-.70284-1.5759-1.57588v-44.02132c0-.87303.7028-1.57588 1.5759-1.57588l45.5972 45.5972c0 .87304-.7029 1.57588-1.5759 1.57588z"/></g><g stroke-width="6.617693"><path d="m-203.7267-65.835945h56.15017"/><path d="m-203.7267-86.588292h56.15017"/><path d="m-203.7267-45.083597h56.15017"/></g></g><g fill="none" stroke="#000" stroke-linejoin="round" transform="translate(604.59967 -721.43969)"><g stroke-width="9.260415"><path d="m-1479.3042-1348.6137h131.9609c14.6624 14.6623 29.3246 29.3246 43.9869 43.9869v131.961c-58.6493 0-117.2985 0-175.9478 0 0-58.6493 0-117.2986 0-175.9479z"/><path d="m-1427.6688-1348.6138h72.677277v47.425125h-72.677277z"/><path d="m-1377.3937-1332.8778v15.4954" stroke-linecap="round"/></g><g stroke-width=".867884"><path d="m-1448.13571352832-1243.60877068234h113.61104592544v70.94290336539h-113.61104592544z" stroke-width="9.26041519769"/><g stroke-linecap="round" stroke-width="8.036968" transform="matrix(1.1522276 0 0 1.1522276 2485.573 -1321.0163)"><path d="m-3332.2349 86.815572h-64.9352"/><path d="m-3332.2349 109.11617h-64.9352"/></g></g></g><g fill="none" stroke="#000" stroke-linejoin="round" transform="translate(1226.3558 -2041.9376)"><g stroke-width="9.260416"><path d="m-270.94092-413.33916v22.49361m-104.45723 0v-62.72064h64.21954" stroke-miterlimit="6.2"/><path d="m-272.33159-411.94889h-38.8471c-.77048 0-1.39067-.62007-1.39067-1.39028v-38.83674c0-.77021.62019-1.39028 1.39067-1.39028l40.23777 40.22702c0 .77021-.62029 1.39028-1.39067 1.39028z" stroke-linecap="round"/><path d="m-263.92908-373.52177h12.75166" stroke-linecap="round"/><path d="m-374.82216-325.24597h-36.32141v-64.50356h175.9479v64.50356h-33.49189"/></g><g transform="translate(-171.60118 -248.72845)"><path d="m-181.73851-68.859629h60.34023" stroke-linecap="round" stroke-width="9.260416"/><path d="m-181.73851-50.007184h60.34023" stroke-linecap="round" stroke-width="9.260416"/><path d="m-204.63582-89.977005h106.13478v61.087173h-106.13478z" stroke-width="9.260417"/></g></g><g fill="none" stroke="#000" stroke-linecap="round" stroke-linejoin="round" stroke-width="9.260416" transform="translate(-651.26232 -907.69052)"><path d="m-1479.1986 143.76773 175.8543-175.854357"/><path d="m-1479.1986-32.086627 175.8543 175.854387"/></g><g fill="none" stroke="#000" stroke-linecap="round" stroke-linejoin="round" stroke-width="9.260416" transform="translate(238.12565 -1067.7833)"><ellipse cx="-344.66565" cy="-2283.1392" rx="57.371502" ry="56.435123" transform="matrix(.70704084 -.70717272 .70704084 .70717272 0 0)"/><path d="m-1738.9413-1251.8221-79.1058-79.1204"/></g><g fill="none" stroke="#000" stroke-linecap="round" stroke-linejoin="round" transform="translate(986.16305 -854.72512)"><path d="m-925.98217-1197.0125h-35.14851v-18.3158h35.14851z" stroke-miterlimit="6.2" stroke-width="9.260416"/><g stroke-miterlimit="6.2" stroke-width="9.260416" transform="translate(-791.98798 -1017.274)"><path d="m-80.133301-22.106398h-142.870299v-157.632072h142.870299z"/><path d="m-106.55211-167.13593h-90.03267v-6.88925h90.03267z"/></g><g stroke-width="7.956882" transform="matrix(1.1649225 0 0 1.162728 3430.166 -880.5536)"><path d="m-3788.4218-212.55864h68.3772"/><path d="m-3788.4218-237.18328h68.3772"/><path d="m-3788.4218-187.93401h68.3772"/><path d="m-3788.9913-163.30937h68.3772"/></g></g><g fill="none" stroke="#000" stroke-linecap="round" stroke-linejoin="round" transform="translate(-1784.9094 -907.8804)"><ellipse cx="704.22473" cy="-258.69522" rx="23.976822" ry="23.822092" stroke-width="9.261107" transform="matrix(.50750515 -.86164873 .87029421 .49253221 0 0)"/><path d="m185.26258-702.97257-32.84212-18.58659" stroke-width="9.260416"/><ellipse cx="-519.54413" cy="454.93579" rx="23.976822" ry="23.822092" stroke-width="9.261107" transform="matrix(.50750515 .86164873 .87029421 -.49253221 0 0)"/><g stroke-width="9.260416"><path d="m185.26258-702.97257-32.84212 18.58657"/><path d="m185.2703-702.96933 98.805-29.77729"/><path d="m185.2703-702.96933 98.805 29.7773"/></g></g><g fill="none" stroke="#000" stroke-linecap="round" stroke-width=".657045" transform="matrix(1.5226963 0 0 1.5212372 72.21238 -1623.07904)"><path d="m-5468.2984 2139.3147-.0001-72.6955" stroke-linejoin="round" stroke-width="22.996563" transform="matrix(.26458332 0 0 .26458332 -244.17261 -97.60714)"/><path d="m-5468.2981 2503.45-.0002-246.9574" stroke-linejoin="round" stroke-width="22.996563" transform="matrix(.26458332 0 0 .26458332 -244.17261 -97.60714)"/><circle cx="-1690.9932" cy="483.92142" r="15.501632" stroke-linejoin="bevel" stroke-width="6.084507"/></g><g fill="none" stroke="#000" stroke-linecap="round" stroke-width=".657045" transform="matrix(1.5226963 0 0 1.5212372 74.72028 -1623.07904)"><path d="m-5314.7551 2305.2388-.0001-238.6196" stroke-linejoin="round" stroke-width="22.996563" transform="matrix(.26458332 0 0 .26458332 -244.17261 -97.60714)"/><path d="m-5314.7548 2503.45-.0002-81.0333" stroke-linejoin="round" stroke-width="22.996563" transform="matrix(.26458332 0 0 .26458332 -244.17261 -97.60714)"/><circle cx="-1650.3682" cy="527.8219" r="15.501632" stroke-linejoin="bevel" stroke-width="6.084507"/></g><g fill="none" stroke="#000" stroke-linecap="round" stroke-width=".657045" transform="matrix(1.5226963 0 0 1.5212372 30.01978 -1621.45272)"><path d="m-5044.0344 2186.7228v-124.1442" stroke-linejoin="round" stroke-width="22.996563" transform="matrix(.26458332 0 0 .26458332 -244.17261 -97.60714)"/><path d="m-5044.034 2499.4094v-195.5093" stroke-linejoin="round" stroke-width="22.996563" transform="matrix(.26458332 0 0 .26458332 -244.17261 -97.60714)"/><circle cx="-1578.74" cy="496.46475" r="15.501632" stroke-linejoin="bevel" stroke-width="6.084507"/></g><g fill="none" stroke="#000" stroke-linecap="round" stroke-linejoin="round" stroke-width="9.260416" transform="translate(-228.22613 -219.40648)"><path d="m-2262.1172-1850.6493h116.03008v175.95261h-116.03008z" stroke-miterlimit="6.2"/><path d="m-2212.1083-1762.673h132.0424"/><path d="m-2080.066-1762.673-38.8891 38.0512"/><path d="m-2080.066-1762.673-38.8891-38.0511"/></g><g fill="none" stroke="#000" stroke-linecap="round" stroke-linejoin="round" stroke-width="9.260416" transform="translate(-215.52613 -196.22155)"><path d="m-1895.1715-1873.8342h116.03008v175.95261h-116.03008z" stroke-miterlimit="6.2"/><path d="m-1713.1202-1785.858h-132.0424"/><path d="m-1845.1625-1785.858 38.8891 38.0512"/><path d="m-1845.1625-1785.858 38.8891-38.0511"/></g><g fill="none" stroke="#000" stroke-linecap="round" stroke-linejoin="round" transform="translate(-1893.2508 -908.48397)"><path d="m-822.94577-666.60436-.00027 50.63486c0 1.26358-.84285 2.28081-1.89013 2.28081h-172.17305c-1.04714 0-1.89013-1.01723-1.89013-2.28081v-50.63486" stroke-miterlimit="6.2" stroke-width="9.260415"/><g stroke-width="9.260416" transform="translate(-755.12118 -593.01002)"><path d="m-155.80138-47.138367v-150.834973"/><path d="m-155.80138-197.97325-43.48169 44.42384"/><path d="m-155.80138-197.97325 43.4817 44.42384"/></g></g><path d="m292.19891-1203.8827h175.7822" fill="none" stroke="#000" stroke-linecap="round" stroke-linejoin="round" stroke-width="9.260416"/><g fill="none" stroke="#000" stroke-linecap="round" stroke-linejoin="round" stroke-width="9.260416" transform="translate(152.39999 -1113.3666)"><path d="m-239.45954-110.08035h175.78218"/><path d="m-151.56845-197.97144v175.782179"/></g><g fill="none" stroke="#000" stroke-linecap="round" stroke-linejoin="round" stroke-width="9.260416" transform="translate(-401.07507 -1192.8655)"><ellipse cx="-840.60016" cy="-2602.1973" rx="57.371502" ry="56.435123" transform="matrix(.70704084 -.70717272 .70704084 .70717272 0 0)"/><path d="m-2315.1744-1126.74-79.1057-79.1204"/><path d="m-2472.2481-1245.7533h76.0993"/><path d="m-2434.1984-1283.803v76.0993"/></g><g fill="none" stroke="#000" stroke-linecap="round" stroke-linejoin="round" stroke-width="9.260416" transform="translate(63.36091 -1101.9938)"><ellipse cx="-566.17584" cy="-2456.2729" rx="57.371502" ry="56.435123" transform="matrix(.70704084 -.70717272 .70704084 .70717272 0 0)"/><path d="m-2017.9707-1217.6117-79.1057-79.1203"/><path d="m-2175.0444-1336.625h76.0993"/></g><g transform="translate(-7.44964 -822.12455)"><text stroke-width=".264583" x="-2507.1326" y="-1592.7974"><tspan dx="0" dy="0" stroke-width=".379701" transform="matrix(.69682017 0 0 .69682017 -67.153659 -55.007348)" x="-2507.1326" y="-1592.7974"/></text><g fill="none" stroke="#000" stroke-linecap="round" stroke-linejoin="round" stroke-width="9.260416"><ellipse cx="-598.08905" cy="-2883.9441" rx="57.371502" ry="56.435123" transform="matrix(.70704084 -.70717272 .70704084 .70717272 0 0)"/><path d="m-2342.9156-1497.4809-79.1058-79.1204"/></g></g><g fill="none" stroke="#000"><g stroke-linecap="round" stroke-linejoin="round" stroke-miterlimit="6.2" stroke-width="9.260416" transform="translate(-3120.8611 -421.04619)"><path d="m228.71378-496.77704h153.94724v153.94724h-153.94724z"/><path d="m250.71444-496.77699v-22.00073h153.94724v153.94724h-22.00073"/></g><g stroke-linecap="round" stroke-linejoin="round" stroke-width="9.260416" transform="translate(-312.38402 -1532.9212)"><path d="m392.74279-12.27948h-71.21026c-61.03471 0-61.03471-93.20769 5.20191-93.20769h90.48202 35.06893"/><path d="m452.28539-105.48717-38.8891 38.05115"/><path d="m452.28539-105.48717-38.8891-38.05115"/></g><g stroke-linecap="round" stroke-linejoin="round" stroke-width="9.260416" transform="translate(56.75471 -1230.2967)"><path d="m-460.4089-314.90398h71.21026c61.0347 0 61.0347-93.20769-5.20191-93.20769h-90.48202-35.06893"/><path d="m-519.9515-408.11167 38.8891 38.05115"/><path d="m-519.9515-408.11167 38.8891-38.05115"/></g><g stroke-linecap="round" stroke-linejoin="round" stroke-width="9.260416" transform="translate(-1725.1645 -1092.9762)"><path d="m184.0267-110.90647-95.203572 87.928357"/><path d="m184.0267-110.90647-95.203572-87.92835"/></g><g stroke-linecap="round" stroke-linejoin="round" stroke-width="9.260416" transform="translate(-2672.4487 -836.66045)"><path d="m-179.32648-367.22226 95.203558 87.92835"/><path d="m-179.32648-367.22226 95.203558-87.92836"/></g><g transform="translate(164.23835 -1072.3573)"><g stroke-linecap="round" stroke-linejoin="round" stroke-width="9.027246" transform="matrix(1.0260175 0 0 1.0256418 -467.16513 -277.97446)"><path d="m-158.46651 96.671625 38.88909 38.051155"/><path d="m-158.46651 96.671625 38.88909-38.05115"/></g><path d="m-629.80255-110.38615c0 27.680812 16.68063 52.63599 42.26373 63.228983 25.58311 10.592992 55.03053 4.737675 74.61101-14.835612 19.58046-19.573296 25.43792-49.009931 14.84104-74.583681-10.59687-25.57373-35.13-42.24554-62.82095-42.24554l-68.84199.003" stroke-width="9.260416"/></g><path d="m-1514.9723-863.95421h-175.9495l90.0418-75.8658zm-106.8185 100.0737h-46.5326v-100.0739h129.1794v100.0739h-46.5326m-36.1145-.1181v-48.0593h36.1147v48.0593" stroke-linecap="round" stroke-linejoin="round" stroke-width="9.260416"/><g transform="translate(-24.144967 -1106.224)"><g stroke-linecap="round" stroke-linejoin="round" stroke-width="9.027246" transform="matrix(-1.0260175 0 0 1.0256418 -903.16509 -277.97446)"><path d="m-158.46651 96.671625 38.88909 38.051155"/><path d="m-158.46651 96.671625 38.88909-38.05115"/></g><path d="m-740.52767-110.38615c0 27.680812-16.68063 52.63599-42.26373 63.228983-25.58311 10.592992-55.03053 4.737675-74.61101-14.835612-19.58046-19.573296-25.43792-49.009931-14.84104-74.583681 10.59687-25.57373 35.13-42.24554 62.82095-42.24554l68.84199.003" stroke-width="9.260416"/></g><g stroke-linecap="round" stroke-linejoin="round" stroke-width="9.260416" transform="translate(-240.94651 -1137.5163)"><circle cx="-690.90137" cy="-1105.1691" r="87.973946" transform="matrix(.70710678 .70710678 -.70710678 .70710678 0 0)"/><circle cx="-690.90137" cy="-1105.1691" r="59.536469" transform="matrix(.70710678 .70710678 -.70710678 .70710678 0 0)"/><path d="m335.03003-1227.9151 20.04987 20.0499"/><path d="m230.78314-1332.162 20.04987 20.0499"/><path d="m250.833-1227.9151-20.04986 20.0499"/><path d="m355.0799-1332.162-20.04987 20.0499"/></g><g stroke-linecap="round" stroke-linejoin="round" stroke-width="9.260416" transform="translate(-291.46694 -1158.5175)"><ellipse cx="452.39822" cy="693.55414" rx="31.198929" ry="31.634565" transform="matrix(-.00009614 -1 1 .00009048 0 0)"/><path d="m837.76177-452.3395-112.58661-.006"/><path d="m781.1025-426.26069.006-26.05829"/><path d="m799.02985-430.77546.006-21.57197"/><path d="m816.9572-426.2826.006-26.0583"/></g><path d="m-112.51194-183.04153 38.319677 95.424145 102.595188 6.9565-78.912325 65.931857 25.087632 99.723499-87.090172-54.676016-87.09018 54.676012 25.08764-99.723494-78.91232-65.931866 102.59518-6.956492z" stroke-linecap="round" stroke-linejoin="round" stroke-width="14.841314" transform="matrix(.62426871 0 0 .62365538 895.34637 -1173.309)"/><g stroke-linecap="round" stroke-linejoin="round" transform="translate(-1.408904 -1533.7002)"><g stroke-width="9.261107" transform="matrix(.50750515 -.86164873 .87029421 .49253221 0 0)"><ellipse cx="518.29993" cy="619.60132" rx="23.976822" ry="23.822092"/><ellipse cx="406.42236" cy="684.8418" rx="23.976822" ry="23.822092"/><ellipse cx="525.33441" cy="762.38867" rx="23.976822" ry="23.822092"/></g><path d="m827.83933-128.56733 76.63311 38.524913" stroke-width="9.260416"/><path d="m823.82442-23.719791 84.73882-42.599805" stroke-width="9.260416"/></g><g stroke-linecap="round" stroke-linejoin="round" stroke-width="9.260416" transform="matrix(0 1 -1 0 -2805.51154 -1269.72366)"><path d="m18.239132-367.22227 95.203568-87.92835"/><path d="m18.23914-367.22227 95.20356 87.92836"/></g><g stroke-linecap="round" stroke-linejoin="round" stroke-width="9.260416" transform="matrix(0 -1 -1 0 -2409.756 -1138.0418)"><path d="m18.239132-367.22227 95.203568-87.92835"/><path d="m18.23914-367.22227 95.20356 87.92836"/></g><g stroke-linecap="round" stroke-width="9.260416" transform="translate(-3018.60173 -348.58277)"><g stroke-linejoin="round" transform="translate(1989.0802 -136.04491)"><path d="m-179.32648-367.22226 95.203558-62.4843"/><path d="m-179.32648-367.22226 95.203558 62.4843"/></g><path d="m1800.4444-591.19554v175.8567"/></g><g stroke-linecap="round" stroke-width="9.260416" transform="translate(-398.88743 -550.17048)"><g stroke-linejoin="round" transform="matrix(-.99999999 0 0 .99999999 -537.4539 65.542778)"><path d="m-179.32648-367.22226 95.203558-62.4843"/><path d="m-179.32648-367.22226 95.203558 62.4843"/></g><path d="m-348.81804-389.60782v175.85669"/></g><g stroke-linecap="round" stroke-linejoin="round" stroke-width="9.260416" transform="translate(1422.7737 -675.91523)"><ellipse cx="-1833.8696" cy="-222.45903" rx="41.306015" ry="41.448803"/><path d="m-1921.5762-88.029044h175.4132m-175.4132.000002a87.974326 86.256897 0 0 1 -.2678-6.724292 87.974326 86.256897 0 0 1 87.9743-86.256896 87.974326 86.256897 0 0 1 87.9744 86.256896 87.974326 86.256897 0 0 1 -.2679 6.725982"/></g><path d="m67.944372-879.66206c-5.379-20.22358-23.8631-34.31947-45.0035-34.31947-1.6883 0-3.3754.0908-5.0537.27224m-39.8743 34.0132c-.5235-.0196-1.0473-.0294-1.5711-.0294-22.901-.00001-41.4659 18.36411-41.4659 41.01743 0 9.84637 2.1625 21.35929 10.0738 26.79863 42.6468 29.3213 113.1667 29.32745 155.809298.00002 7.9097-5.43989 10.0648-16.95225 10.0648-26.79862 0-22.65332-18.564898-41.01744-41.465898-41.01743-.5238 0-1.0476.01-1.5711.0294m-89.9315.034c5.379-20.22358 23.8630997-34.31947 45.0035-34.31947 1.6883 0 3.3754.0908 5.0537.27224" stroke-linecap="round" stroke-linejoin="round" stroke-width="9.260416"/><path d="m-429.92664-2070.0535h175.94791v175.94791h-175.94791z" stroke-linecap="round" stroke-linejoin="round" stroke-width="9.260416"/><g stroke-linecap="round" stroke-linejoin="round" stroke-width="9.260416"><path d="m-408.62768-2023.61908h25.929165v25.929165h-25.929165z"/><path d="m-354.91726-2023.61908h25.929165v25.929165h-25.929165z"/><path d="m-301.20684-2023.61908h25.929165v25.929165h-25.929165z"/><path d="m-408.62768-1966.46909h25.929165v25.929165h-25.929165z"/><path d="m-354.91726-1966.46909h25.929165v25.929165h-25.929165z"/><path d="m-301.20684-1966.46909h25.929165v25.929165h-25.929165z"/></g><path d="m-429.92664-2051.7512h175.94791v139.34364h-175.94791z" stroke-linecap="round" stroke-linejoin="round" stroke-width="9.260416"/><path d="m-1695.91761-2070.05581h116.03008v175.95261h-116.03008z" stroke-linecap="round" stroke-linejoin="round" stroke-miterlimit="6.2" stroke-width="9.260416"/><g stroke-linecap="round" stroke-linejoin="round" stroke-width="9.260416" transform="translate(-65.37061 -968.71081)"><path d="m-1696.5682-1013.3687h132.0424"/><path d="m-1564.5259-1013.3687-38.8891 38.05119"/><path d="m-1564.5259-1013.3687-38.8891-38.0511"/></g><g stroke-linecap="round" stroke-linejoin="round" stroke-width="9.260416" transform="translate(1196.0887 623.78773)"><path d="m-2486.6648-2693.8435h116.03008v175.95261h-116.03008z" stroke-miterlimit="6.2"/><path d="m-2420.6435-2605.8673h-132.0424"/><path d="m-2552.6858-2605.8673 38.8891 38.0512"/><path d="m-2552.6858-2605.8673 38.8891-38.0511"/></g></g><g transform="translate(-131.23332 -432.5953)"><g fill="none" stroke="#000" stroke-linecap="round" stroke-linejoin="round" stroke-width="9.260416"><path d="m510.39322-419.2546h99.0598"/><path d="m510.39322-478.4401h99.0598"/><path d="m510.39322-360.06921h99.0598"/></g><circle cx="491.23651" cy="-478.44009" r="4.630208"/><circle cx="491.23651" cy="-419.25464" r="4.630208"/><circle cx="491.23651" cy="-360.06921" r="4.630208"/><path d="m433.62349-419.2546h38.45635" fill="none" stroke="#000" stroke-linecap="round" stroke-linejoin="round" stroke-width="9.260416"/><path d="m433.62349-478.4401h38.45635" fill="none" stroke="#000" stroke-linecap="round" stroke-linejoin="round" stroke-width="9.260416"/><path d="m433.62349-360.06921h38.45635" fill="none" stroke="#000" stroke-linecap="round" stroke-linejoin="round" stroke-width="9.260416"/></g><path d="m-2794.5038-2031.0828c-7.0159-7.7603-14.0319-15.5207-21.0478-23.281-11.7868 0-23.5737 0-35.3605 0m-32.9111 23.281c7.0159-7.7603 14.0319-15.5207 21.0478-23.281h35.3605m111.2154 144.5691c-58.6493 0-117.2986 0-175.9479 0 0-40.4294 0-80.8587 0-121.2881h175.9479z" fill="none" stroke="#000" stroke-linecap="round" stroke-linejoin="round" stroke-width="9.260416"/><path d="m744.32074-2034.8716h175.94792v105.58412h-175.94792z" fill="none" stroke="#000" stroke-linecap="round" stroke-linejoin="round" stroke-width="9.260415"/><path d="m920.26868-2034.8716-175.96193-.3367 87.69092 78.011z" fill="none" stroke="#000" stroke-linecap="round" stroke-linejoin="round" stroke-width="9.260416"/><path d="m803.84583-1981.9173-59.539 52.9667 175.96185-.3369-59.79582-52.6174-28.46131 25.0444z" fill="none" stroke="#000" stroke-linecap="round" stroke-linejoin="round" stroke-width="9.260416"/><path d="m-1185.807-2341.5635v-133.0631h-42.6218v155.0684h61.8115v-175.9433h-83.0773v153.938" fill="none" stroke="#000" stroke-width="9.260416"/><g fill="none" stroke="#000" stroke-linecap="round" stroke-linejoin="round" stroke-width="9.260416" transform="translate(-30.107552 -18.971792)"><path d="m763.41671-840.01578a150.88508 154.11206 0 0 1 50.68894-8.95671 150.88508 154.11206 0 0 1 50.68635 8.95576"/><path d="m744.75814-872.99241a187.68634 191.70036 0 0 1 69.35474-13.56839 187.68634 191.70036 0 0 1 69.33769 13.56145"/><path d="m726.19227-905.84079a224.48756 229.28865 0 0 1 87.90085-18.30833 224.48756 229.28865 0 0 1 87.92332 18.3181"/><ellipse cx="814.10437" cy="-798.31799" rx="18.761122" ry="18.7672"/></g></g></svg>